<svg width="113" height="98" viewBox="0 0 113 98" fill="none" xmlns="http://www.w3.org/2000/svg">
<rect width="113" height="98" fill="url(#paint0_linear_889_2843)"/>
<g clip-path="url(#clip0_889_2843)">
<path d="M36.0015 40.0574C36.0015 36.1028 36.9027 32.5223 38.7053 29.3161C40.5079 26.1099 42.9697 23.5925 46.0825 21.7555C49.1952 19.9185 52.6668 19 56.4973 19C60.3277 19 63.8661 19.9185 66.9538 21.7555C70.0416 23.5925 72.4867 26.1099 74.2893 29.3161C76.0918 32.5223 76.9931 36.0943 76.9931 40.0574C76.9931 43.1786 76.409 46.0872 75.2323 48.7916C74.0556 51.4961 72.3782 53.7923 70.1918 55.6889L63.5156 50.382C64.8842 49.2084 66.6033 47.0992 67.2876 45.4578C67.972 43.8164 68.3141 42.0135 68.3141 40.0659C68.3141 37.7782 67.8051 35.7626 66.7953 34.0106C65.7855 32.2587 64.4002 30.8894 62.6561 29.9199C60.9036 28.9419 58.859 28.4571 56.5056 28.4571C54.1523 28.4571 52.1745 28.9419 50.3969 29.9199C48.6194 30.8979 47.2258 32.2587 46.216 34.0106C45.2062 35.7626 44.6972 37.7867 44.6972 40.0659C44.6972 42.0135 45.0393 43.8079 45.7236 45.4578C46.4079 47.0992 48.3607 49.455 49.7293 50.6286L42.8112 55.6974C40.6247 53.8009 38.939 51.5046 37.7706 48.8001C36.594 46.0957 36.0098 43.1871 36.0098 40.0659L36.0015 40.0574Z" fill="white"/>
<path d="M56.5833 51.5733L37.2725 67.0177V78.9922L56.5415 64.1261L75.8607 79.0007V66.754L56.5833 51.5733Z" fill="#F4F4F4"/>
</g>
<defs>
<linearGradient id="paint0_linear_889_2843" x1="-140.407" y1="49.0565" x2="118.06" y2="49.0565" gradientUnits="userSpaceOnUse">
<stop stop-color="#511131"/>
<stop offset="1" stop-color="#2C1531"/>
</linearGradient>
<clipPath id="clip0_889_2843">
<rect width="41" height="60" fill="white" transform="translate(36 19)"/>
</clipPath>
</defs>
</svg>
